<?xml version="1.0" encoding="UTF-8" standalone="no"?>
<svg
   xmlns:dc="http://purl.org/dc/elements/1.1/"
   xmlns:cc="http://creativecommons.org/ns#"
   xmlns:rdf="http://www.w3.org/1999/02/22-rdf-syntax-ns#"
   xmlns:svg="http://www.w3.org/2000/svg"
   xmlns="http://www.w3.org/2000/svg"
   xmlns:sodipodi="http://sodipodi.sourceforge.net/DTD/sodipodi-0.dtd"
   xmlns:inkscape="http://www.inkscape.org/namespaces/inkscape"
   version="1.1"
   width="156.30841"
   height="151.95372"
   id="svg3141"
   inkscape:version="0.48.4 r9939"
   sodipodi:docname="Urist_WhiteBG.svg">
  <sodipodi:namedview
     pagecolor="#ffffff"
     bordercolor="#666666"
     borderopacity="1"
     objecttolerance="10"
     gridtolerance="10"
     guidetolerance="10"
     inkscape:pageopacity="0"
     inkscape:pageshadow="2"
     inkscape:window-width="1920"
     inkscape:window-height="1014"
     id="namedview6"
     showgrid="false"
     fit-margin-top="0"
     fit-margin-left="0"
     fit-margin-right="0"
     fit-margin-bottom="0"
     inkscape:zoom="5.6568543"
     inkscape:cx="37.725336"
     inkscape:cy="98.81603"
     inkscape:window-x="0"
     inkscape:window-y="27"
     inkscape:window-maximized="1"
     inkscape:current-layer="svg3141"
     showguides="true"
     inkscape:guide-bbox="true" />
  <metadata
     id="metadata3147">
    <rdf:RDF>
      <cc:Work
         rdf:about="">
        <dc:format>image/svg+xml</dc:format>
        <dc:type
           rdf:resource="http://purl.org/dc/dcmitype/StillImage" />
        <dc:title />
      </cc:Work>
    </rdf:RDF>
  </metadata>
  <defs
     id="defs3145" />
  <path
     sodipodi:type="arc"
     style="fill:#ffffff"
     id="path3093"
     sodipodi:cx="84.090042"
     sodipodi:cy="76.065483"
     sodipodi:rx="60.779659"
     sodipodi:ry="62.59269"
     d="m 144.8697,76.065483 a 60.779659,62.59269 0 1 1 -121.559317,0 60.779659,62.59269 0 1 1 121.559317,0 z"
     transform="matrix(0.98579545,0,0,0.98206897,-3.4676153,0.06891164)" />
  <path
     sodipodi:type="arc"
     style="fill:#ffffff"
     id="path3099"
     sodipodi:cx="38.850636"
     sodipodi:cy="26.509336"
     sodipodi:rx="11.223516"
     sodipodi:ry="10.446504"
     d="m 50.074152,26.509336 a 11.223516,10.446504 0 1 1 -22.447033,0 11.223516,10.446504 0 1 1 22.447033,0 z"
     transform="translate(8.1154659,3.9713982)" />
  <path
     sodipodi:type="arc"
     style="fill:#ffffff"
     id="path3099-3"
     sodipodi:cx="38.850636"
     sodipodi:cy="26.509336"
     sodipodi:rx="11.223516"
     sodipodi:ry="10.446504"
     d="m 50.074152,26.509336 a 11.223516,10.446504 0 1 1 -22.447033,0 11.223516,10.446504 0 1 1 22.447033,0 z"
     transform="matrix(1.3384615,0,0,1.3884298,74.048644,63.605527)" />
  <path
     sodipodi:type="arc"
     style="fill:#ffffff"
     id="path3099-5"
     sodipodi:cx="38.850636"
     sodipodi:cy="26.509336"
     sodipodi:rx="11.223516"
     sodipodi:ry="10.446504"
     d="m 50.074152,26.509336 a 11.223516,10.446504 0 1 1 -22.447033,0 11.223516,10.446504 0 1 1 22.447033,0 z"
     transform="matrix(1.6846154,0,0,1.9752067,-13.388528,60.050989)" />
  <g
     id="g2996"
     transform="matrix(0.82157486,0,0,0.82157486,-2550.9567,52.794661)">
    <path
       sodipodi:nodetypes="cssssssssssssscscscsscssssssssscsssscscssssssssssssscssssccsssscsssssssssssssssscsss"
       inkscape:connector-curvature="0"
       style="fill:#000000"
       id="path3157"
       d="m 3163.1173,102.24967 c -1.1,-0.25181 -3.0042,-0.67181 -4.2316,-0.93334 -9.4523,-2.014057 -27.3042,-32.942067 -30.7347,-53.247206 -2.1991,-13.016196 -2.8311,-25.728166 -1.7141,-34.474906 0.8483,-6.6427602 1.4437,-8.2364902 4.0867,-10.9398402 1.8146,-1.85606996 3.0986,-4.22281 3.1056,-5.72449 0.043,-9.2485598 9.1,-28.9843598 16.5234,-36.0051398 8.2077,-7.76251 16.1629,-8.98486 58.7545,-9.02794 30.2669,-0.0306 30.8226,0.0853 38.836,8.0987 7.094,7.09396 20.8735,29.72582 23.6688,38.8742098 0.5882,1.92500004 3.3309,10.54745 6.095,19.1609902 4.8542,15.12669 5.0078,15.96254 4.5022,24.5 -1.0614,17.922838 -3.0253,22.699125 -13.5661,32.993015 -10.5321,10.2853 -19.2477,15.39631 -40.3257,23.64771 l -12.6621,3.131757 -22.8379,1.41085 c -10.3748,0.64092 -28.4,-1.21269 -29.5,-1.46437 z m 24.0722,-7.707507 c 0.2802,-0.73015 0.038,-2.56792 -0.5385,-4.08392 -0.5764,-1.516 -0.7295,-3.27177 -0.3401,-3.90171 0.3901,-0.63118 1.2378,1.08994 1.8883,3.83391 l 1.1805,4.97927 0.1188,-6.30902 c 0.1543,-8.19172 2.0549,-7.26742 2.2991,1.11804 0.1756,6.03253 0.1899,6.06301 0.56,1.19098 0.5533,-7.28621 2.2597,-8.14778 2.2597,-1.14098 0,3.5847 0.3776,5.52568 1,5.14098 0.55,-0.33992 1,-2.33523 1,-4.43402 0,-5.14124 1.049,-10.06598 2.1441,-10.06598 0.4917,0 0.6663,1.0125 0.388,2.25 -0.2784,1.2375 -0.6919,4.65671 -0.919,7.59824 l -0.413,5.34825 9.15,-0.68784 c 11.2941,-0.84903 23.4631,-4.7238 37.1297,-11.82262 7.7197,-4.00979 11.8444,-7.0005 18.186,-13.18603 7.1819,-7.00517 8.4081,-8.724257 9.8605,-13.824147 0.9123,-3.20329 1.5046,-5.963692 1.3162,-6.134232 -0.9928,-0.8988 -66.3818,-2.5646 -99.4921,-2.53458 l -38.1497,0.0346 1.4273,5.465412 c 3.535,13.536927 13.0297,31.351167 19.9466,37.424277 3.5152,3.0864 6.7298,3.85164 18.4254,4.38622 3.575,0.16341 7.5266,0.38381 8.7814,0.48978 1.2548,0.10597 2.5106,-0.40472 2.7908,-1.13488 z m -13.5722,-23.30014 c 0,-0.34522 2.19,-3.60772 4.8666,-7.25 2.6765,-3.642267 5.4519,-7.746107 6.1675,-9.119647 0.7539,-1.44716 1.4739,-1.97859 1.7122,-1.26375 0.2262,0.67846 -2.0992,4.67115 -5.1675,8.872637 -3.0684,4.20149 -5.5788,8.03268 -5.5788,8.51376 0,0.48108 -0.45,0.87469 -1,0.87469 -0.55,0 -1,-0.28246 -1,-0.62769 z m 10,-1.83713 c -0.2592,-0.76282 0.9208,-1.95761 2.0462,-2.55991 2.432,-1.30155 8.5811,-0.90605 8.1584,0.52473 -0.1625,0.55 -1.2035,0.85439 -2.3133,0.67643 -1.1098,-0.17797 -4.0715,0.28848 -5.2136,1.40424 -2.5401,2.48159 -2.5704,0.27021 -2.6777,-0.0455 z m 19,-10.222657 c -5.1771,-7.62089 -5.5248,-8.312522 -4.1783,-8.312522 0.5435,0 2.1094,1.913052 3.4796,4.251222 1.3703,2.33817 3.4381,5.10791 4.5951,6.15498 2.044,1.849817 2.8677,4.626067 1.3536,4.562127 -0.4125,-0.0174 -2.775,-3.01253 -5.25,-6.655807 z m 24.6856,-30.486828 c 1.4689,-1.37997 2.3028,-3.29795 2.2826,-5.25 -0.082,-7.97681 -9.7845,-10.95908 -14.3673,-4.4163 -5.2674,7.5203 5.3386,16.00388 12.0847,9.6663 z m -52.6302,0.14467 c 1.0582,-0.5663 2.6434,-2.42097 3.5228,-4.12148 3.3895,-6.55468 -1.0824,-13.84888 -8.4905,-13.84888 -4.6718,0 -7.6403,2.1145 -9.0761,6.46503 -2.6718,8.09559 6.4506,15.56908 14.0438,11.50533 z m 87.9227,-29.22036016 c -0.063,-6.46783004 -16.5763,-32.13323984 -23.9439,-37.21462984 -3.2801,-2.26223 -4.7205,-2.48258 -20.0342,-3.06477 -9.075,-0.34501 -24.9434,-0.18694 -35.2631,0.35128 -21.6036,1.12671 -25.7903,2.44603 -31.3931,9.8926 -3.8664,5.1387 -9.2604,18.78551 -10.0456,25.4152898 l -0.5768,4.87023004 14.8893,0.13569 c 8.1891,0.0746 29.2893,0.43944 46.8893,0.81071 62.5949,1.32041996 59.5032,1.38260996 59.4781,-1.1964 z" />
  </g>
</svg>
