<?xml version="1.0" encoding="UTF-8" standalone="no"?>
<svg
   xmlns:dc="http://purl.org/dc/elements/1.1/"
   xmlns:cc="http://creativecommons.org/ns#"
   xmlns:rdf="http://www.w3.org/1999/02/22-rdf-syntax-ns#"
   xmlns:svg="http://www.w3.org/2000/svg"
   xmlns="http://www.w3.org/2000/svg"
   xmlns:sodipodi="http://sodipodi.sourceforge.net/DTD/sodipodi-0.dtd"
   xmlns:inkscape="http://www.inkscape.org/namespaces/inkscape"
   version="1.1"
   width="613.42004"
   height="280.51758"
   id="svg2"
   inkscape:version="0.48.2 r9819"
   sodipodi:docname="logo.svg">
  <sodipodi:namedview
     pagecolor="#ffffff"
     bordercolor="#666666"
     borderopacity="1"
     objecttolerance="10"
     gridtolerance="10"
     guidetolerance="10"
     inkscape:pageopacity="0"
     inkscape:pageshadow="2"
     inkscape:window-width="1082"
     inkscape:window-height="871"
     id="namedview7"
     showgrid="false"
     fit-margin-top="0"
     fit-margin-left="0"
     fit-margin-right="0"
     fit-margin-bottom="0"
     inkscape:zoom="0.63429569"
     inkscape:cx="351.04825"
     inkscape:cy="-227.62736"
     inkscape:window-x="506"
     inkscape:window-y="82"
     inkscape:window-maximized="0"
     inkscape:current-layer="svg2" />
  <defs
     id="defs4" />
  <metadata
     id="metadata7">
    <rdf:RDF>
      <cc:Work
         rdf:about="">
        <dc:format>image/svg+xml</dc:format>
        <dc:type
           rdf:resource="http://purl.org/dc/dcmitype/StillImage" />
        <dc:title />
      </cc:Work>
    </rdf:RDF>
  </metadata>
  <g
     id="layer1"
     transform="translate(-61.131446,-455.03401)">
    <path
       d="m 256.87411,735.3583 c -3.00269,-0.6237 -4.61323,-2.8412 -3.83785,-5.28421 0.49852,-1.57069 1.50827,-2.05204 4.33262,-2.06535 4.73107,-0.0223 15.85649,-2.38285 24.16977,-5.12822 8.07255,-2.66588 15.01284,-8.93056 15.01284,-13.5514 0,-4.87019 -5.6189,-11.88505 -16.87791,-21.07106 -15.23899,-12.43318 -29.33383,-26.73084 -32.48135,-32.94872 -3.42794,-6.77186 -3.56482,-13.61624 -0.36718,-18.3612 4.69278,-6.96363 18.9331,-14.9324 24.4375,-13.67504 1.16599,0.26634 0.39605,0.80716 -2.21106,1.55308 -5.85829,1.67611 -14.39832,7.15398 -17.8347,11.43978 -4.22008,5.26323 -4.13727,10.79118 0.26441,17.65061 4.15207,6.47044 10.65153,12.38839 27.27778,24.83726 18.40286,13.7791 25.74859,22.41537 25.74859,30.27227 0,6.47163 -6.4241,14.64731 -14.91153,18.97727 -8.42049,4.29581 -27.16532,8.5091 -32.72193,7.35493 z m 99.30478,-9.12606 c -0.82622,-1.33685 -8.30503,-32.24961 -9.6667,-39.95614 l -1.28101,-7.25 -17.33984,0 c -10.89323,0 -17.33985,-0.37178 -17.33985,-1 0,-0.56311 2.94904,-1.02121 6.75,-1.04856 8.44287,-0.0607 26.08681,-1.45491 26.74524,-2.11334 0.27062,-0.27062 0.0137,-4.28241 -0.57087,-8.91507 -1.02009,-8.08382 -0.55679,-16.92387 0.8869,-16.92226 0.3788,4.2e-4 0.7992,3.26292 0.93422,7.25 0.13501,3.98708 0.81845,9.7148 1.51873,12.72827 l 1.27325,5.47904 3.98126,-0.29804 c 2.1897,-0.16393 7.86293,-1.07311 12.60718,-2.0204 4.74426,-0.9473 9.13176,-1.55375 9.75,-1.34767 1.38305,0.46102 1.48708,3.86565 0.14349,4.69604 -0.87461,0.54054 -20.63163,3.44346 -23.7694,3.49247 -1.82486,0.0285 -1.62249,1.35362 2.3823,15.59906 8.36336,29.74932 8.35818,29.727 7.21924,31.09934 -1.21914,1.46897 -3.4686,1.74975 -4.22414,0.52726 z m 92.48557,-11.45614 c -4.01138,-17.39108 -5.43555,-27.25208 -5.52425,-38.25 -0.0804,-9.96827 0.14576,-11.41844 2.41128,-15.4613 2.86847,-5.11883 7.61291,-8.6873 12.86175,-9.67379 8.24328,-1.54927 25.13355,3.6566 25.97091,8.00469 0.72289,3.75366 -1.49043,4.05768 -8.03887,1.10421 -4.94316,-2.22946 -7.83112,-2.85312 -13.45758,-2.90621 -6.23661,-0.0589 -7.49526,0.24311 -9.72484,2.33307 -4.90555,4.59838 -5.97442,9.62227 -5.29316,24.87907 0.51908,11.62484 1.9559,24.2849 4.13909,36.47026 0.27098,1.5125 0.10942,2.75 -0.35903,2.75 -0.46845,0 -1.81183,-4.1625 -2.9853,-9.25 z m 64.91485,-5.5 c -10.7919,-30.33398 -13.83216,-49.98045 -8.83782,-57.11088 4.22222,-6.02807 14.30693,-10.20099 26.34294,-10.90037 8.52023,-0.49508 11.22018,0.63508 9.87732,4.1345 -0.49166,1.28125 -2.06586,1.62675 -7.41191,1.62675 -8.71686,0 -19.38168,3.22948 -23.16779,7.01559 -2.47604,2.47604 -2.83056,3.57924 -2.83056,8.80811 0,8.3773 3.37984,27.35993 7.56455,42.48578 1.94913,7.04521 3.79262,13.45771 4.09665,14.25 0.30403,0.79228 0.10146,1.44052 -0.45016,1.44052 -0.55161,0 -2.88407,-5.2875 -5.18322,-11.75 z m -111.84819,3.06824 c -8.03453,-3.95925 -13.22713,-16.23854 -13.87802,-32.81824 -0.30855,-7.85952 -0.13212,-10.57175 0.61796,-9.5 0.57739,0.825 1.0567,3.56552 1.06512,6.09004 0.021,6.29418 3.48959,19.33717 6.51559,24.50065 7.15032,12.2011 16.50872,11.33904 22.69611,-2.09069 2.01467,-4.37286 2.28741,-6.44243 2.17444,-16.5 -0.0711,-6.325 -0.60765,-13.5101 -1.19244,-15.9669 -1.21095,-5.08736 -0.16681,-7.321 3.19338,-6.83136 2.84905,0.41517 3.87685,5.64486 3.98925,20.29826 0.077,10.04254 -0.2648,12.95501 -2.09555,17.85456 -5.15793,13.8039 -13.91752,19.48166 -23.08584,14.96368 z m 57.32037,-38.97924 c -3.3,-0.80437 -7.0125,-1.66828 -8.25,-1.9198 -1.2375,-0.25152 -2.25,-0.82802 -2.25,-1.28112 0,-0.4531 4.1625,-0.23536 9.25,0.48386 5.0875,0.71922 9.5875,1.32351 10,1.34287 0.4125,0.0194 0.75,0.71019 0.75,1.53519 0,1.79499 -1.58563,1.76812 -9.5,-0.161 z m 59.75,-0.0191 c -11.49631,-0.4909 -12.28046,-2.31679 -1,-2.32848 4.5375,-0.005 13.2,-0.48303 19.25,-1.06295 16.52827,-1.5843 15.90434,-1.59199 16.26882,0.20054 0.20761,1.02102 -0.52722,1.84372 -1.96879,2.20423 -3.47125,0.8681 -22.10139,1.43282 -32.55003,0.98666 z m -140.75,-67.93994 c -1.1,-0.25181 -3.0391,-0.68056 -4.30911,-0.95278 -10.84091,-2.32373 -29.06867,-36.01547 -31.72125,-58.63278 -2.47742,-21.12373 -1.34879,-35.22356 3.1995,-39.97095 2.10003,-2.19195 3.08124,-4.60398 3.93561,-9.67457 1.43547,-8.51939 7.1621,-21.83384 12.34133,-28.69368 8.12906,-10.76687 16.27871,-12.43407 60.84376,-12.44699 26.35444,-0.008 28.55886,0.12904 32.22219,1.99793 6.39109,3.26049 10.45792,7.4833 17.61442,18.29003 8.59543,12.97961 13.00771,21.88936 16.44315,33.20383 1.50298,4.95 4.10697,13.39347 5.78665,18.76327 2.73965,8.75847 3.0096,10.75618 2.62296,19.41115 -0.48493,10.85535 -2.50468,18.99754 -5.98189,24.11471 -7.35053,10.81727 -27.26301,24.09339 -46.99732,31.3342 l -9,3.30224 -27.5,0.20611 c -15.125,0.11336 -28.4,9e-5 -29.5,-0.25172 z m 23.41855,-11.12996 c -1.16284,-5.00742 -1.13111,-5.48655 0.33145,-5.00568 0.6875,0.22604 1.53881,2.40104 1.8918,4.83333 0.59279,4.08457 0.63526,3.96407 0.55615,-1.57765 -0.0902,-6.32005 1.3364,-8.08574 2.42391,-3 0.49629,2.32087 0.66829,2.49065 0.75983,0.75 0.24297,-4.6207 2.12104,-2.04637 2.1886,3 0.0516,3.85572 0.29853,4.71885 0.92971,3.25 0.47269,-1.1 0.89106,-3.6507 0.92971,-5.66821 0.0387,-2.01752 0.34343,-4.38002 0.67728,-5.25 1.32143,-3.4436 1.93896,-1.23792 1.55514,5.55465 l -0.40324,7.13645 10.37055,-0.53342 c 8.3303,-0.42847 12.04281,-1.15816 18.87056,-3.70897 13.49023,-5.03987 23.61441,-10.93415 33.01256,-19.21984 8.66344,-7.63795 10.76514,-10.77769 12.4551,-18.60673 l 0.71149,-3.29607 -4.33958,0.1932 c -2.38676,0.10626 -16.266,-0.31968 -30.84275,-0.94654 -14.57675,-0.62685 -43.48925,-1.12352 -64.25,-1.10369 -43.35506,0.0414 -39.37884,-1.19948 -35.23132,10.99475 4.34836,12.7847 12.39537,26.94383 18.40257,32.38027 2.75779,2.49577 7.45862,3.32008 19.72662,3.45915 l 10.14469,0.115 z m -12.91855,-19.80268 c 0,-1.44358 12.51577,-18.40001 12.84726,-17.40553 0.20874,0.62621 -1.01943,3.01048 -2.72925,5.29838 -1.70983,2.28791 -4.34836,6.0559 -5.8634,8.37332 -2.4468,3.74265 -4.25461,5.32918 -4.25461,3.73383 z m 10,-1.82488 c 0,-0.75765 0.6436,-1.91169 1.43021,-2.56452 1.827,-1.51628 8.78021,-0.96861 9.34036,0.7357 0.30841,0.93836 -0.29025,1.11405 -2.17998,0.63976 -1.67173,-0.41958 -3.4857,-0.0769 -5.06269,0.95638 -3.00117,1.96645 -3.5279,2.00119 -3.5279,0.23268 z m 19.17322,-9.79465 c -4.84956,-6.79711 -5.85601,-8.82779 -4.37523,-8.82779 0.55658,0 2.1369,1.9125 3.51183,4.25 1.37492,2.3375 3.65381,5.32791 5.0642,6.64536 2.28635,2.13569 2.70225,4.19782 0.81696,4.05073 -0.38004,-0.0297 -2.63803,-2.78289 -5.01776,-6.1183 z m -10.51094,31.92221 c -0.27741,-0.6875 -0.50439,-0.125 -0.50439,1.25 0,1.375 0.22698,1.9375 0.50439,1.25 0.27741,-0.6875 0.27741,-1.8125 0,-2.5 z m 35.26514,-63.38486 c 4.2365,-5.38584 0.93738,-12.36514 -5.84501,-12.36514 -4.78149,0 -7.48241,2.77174 -7.48241,7.67858 0,6.95083 9.04456,10.13133 13.32742,4.68656 z m -53.01861,0.18202 c 3.36466,-1.73994 5.56689,-6.51567 4.6638,-10.11387 -1.80356,-7.18598 -9.75781,-9.67267 -15.49588,-4.8444 -2.56176,2.15558 -3.07673,3.31233 -3.07673,6.91111 0,3.59878 0.51497,4.75553 3.07673,6.91111 3.47269,2.92208 6.71973,3.26262 10.83208,1.13605 z m 88.09119,-28.60325 c 0,-5.42828 -14.26937,-28.3035 -21.97985,-35.23588 l -5.23646,-4.70803 -31.20818,0 c -41.24699,0 -46.00688,0.95283 -52.59505,10.5284 -3.97859,5.78268 -8.94433,18.37089 -9.67263,24.52023 l -0.58641,4.95137 23.38929,0.13006 c 12.86411,0.0715 35.31429,0.43812 49.88929,0.81464 50.19034,1.29659 48,1.34225 48,-1.00079 z m -348.74547,80.34612 c -4.7035,-5.63424 -19.44376,-26.32523 -27.21411,-38.20058 -5.243443,-8.0135 -5.515493,-8.25961 -6.871973,-6.21663 -2.00855,3.02504 -4.171644,2.70065 -4.153138,-0.62282 0.01162,-2.08643 0.239795,-2.39504 0.945628,-1.27896 1.09863,1.73719 2.11311,1.00528 2.22881,-1.60801 0.0454,-1.02467 -5.867284,-11.31303 -13.139217,-22.86303 -20.69284,-32.86641 -21.801565,-35.23035 -17.328597,-36.94679 3.324908,-1.27589 8.247359,5.62411 24.107183,33.79201 6.094541,10.82424 10.283231,17.282 10.735231,16.55066 0.41833,-0.67688 0.0213,-1.72573 -0.91158,-2.40783 -2.26256,-1.65442 -2.07266,-2.51107 0.4935,-2.22626 1.84109,0.20434 2.774363,-1.25483 6.563393,-10.26179 2.42941,-5.775 6.45688,-16.125 8.94993,-23 2.49305,-6.875 5.05203,-12.82123 5.68661,-13.21384 0.63459,-0.39261 1.78463,-0.0832 2.55564,0.68756 1.20243,1.20204 1.00958,2.51272 -1.35566,9.21383 -1.51662,4.29685 -6.15649,14.90341 -10.31082,23.57013 -4.15434,8.66673 -7.36929,15.90599 -7.14435,16.08725 0.22494,0.18127 11.52645,6.99581 25.11446,15.14342 13.588,8.14762 26.3005,16.12862 28.25,17.73555 3.58542,2.95541 4.76322,6.7761 2.08885,6.7761 -1.27591,0 -50.48968,-32.98909 -54.62306,-36.61506 -2.16927,-1.90297 -2.61003,-1.76111 -3.32025,1.06863 -0.474313,1.88977 1.14495,5.50888 7.04683,15.75 8.46902,14.69569 19.00839,31.95604 23.57981,38.61671 4.10274,5.9778 2.87002,6.27128 -1.97312,0.46975 z m 504.41214,3.0433 c -0.36667,-0.36666 -0.66667,-1.20103 -0.66667,-1.85414 0,-0.93188 21.04938,-38.66356 38.05873,-68.22149 2.03305,-3.53291 3.94127,-5.41827 3.94127,-3.89404 0,1.25549 -32.09212,66.81854 -34.94253,71.38634 -1.87335,3.00206 -4.7922,4.18194 -6.3908,2.58333 z m -463.48979,-1.22401 c -0.6338,-0.39171 2.77962,-1.27606 7.58538,-1.96522 4.80576,-0.68915 9.75024,-1.50229 10.98774,-1.80696 1.6025,-0.39454 2.25,-0.10873 2.25,0.99318 0,1.07259 -1.30358,1.70533 -4.25,2.06288 -9.28149,1.12632 -15.47629,1.394 -16.57312,0.71612 z m 5.52777,-8.88318 c -0.88903,-0.98237 -3.61625,-6.09487 -6.06048,-11.36112 -4.03404,-8.6916 -4.75313,-9.64974 -7.79411,-10.38511 -3.21755,-0.77806 -3.24609,-0.82551 -0.72142,-1.19972 l 2.62864,-0.38961 -4.36946,-10.69529 c -5.31433,-13.00808 -5.61065,-17.25057 -1.47473,-21.1141 2.8615,-2.67305 11.42227,-6.08119 15.27507,-6.08119 3.59275,0 1.57712,3.33524 -2.77758,4.59605 -6.13574,1.77646 -10.19534,4.15041 -10.90134,6.37484 -0.55979,1.76375 5.07017,20.43318 7.60821,25.22946 0.65089,1.23002 2.46604,1.78324 6.56216,2 3.64921,0.19312 5.82075,0.77937 6.10782,1.64895 0.34704,1.05124 -0.79553,1.27214 -5.17236,1 -3.08979,-0.19211 -5.61718,-0.24851 -5.61643,-0.12533 0.005,0.85103 6.34224,16.32506 7.6153,18.59526 1.87828,3.3495 1.36686,4.42203 -0.90929,1.90691 z m 381.89105,-0.92461 c -1.96037,-6.17658 -13.09598,-51.61995 -15.60172,-63.66914 -3.44935,-16.58666 -3.74266,-21.40787 -1.35806,-22.32292 2.65827,-1.02008 4.25292,0.64172 14.30026,14.90236 9.59628,13.62043 21.10995,28.07537 21.80724,27.37809 0.20511,-0.20512 -1.2098,-7.50926 -3.14425,-16.23143 -6.39781,-28.84687 -6.62086,-31.78615 -2.366,-31.17863 1.78737,0.25521 4.54921,4.57927 13.61747,21.32014 6.25645,11.55 14.36202,25.5 18.01236,31 3.65035,5.5 6.637,10.85096 6.637,11.89101 0,2.65528 -3.00864,4.39649 -5.25,3.03837 -2.92581,-1.77286 -10.76415,-14.16561 -18.20145,-28.77728 -3.8767,-7.61634 -7.04855,-13.62355 -7.04855,-13.34937 0,0.27419 0.89893,5.75668 1.99761,12.18331 1.09869,6.42664 1.72193,12.78323 1.38498,14.12575 -0.72714,2.89716 -3.71302,4.7355 -6.33821,3.9023 -3.29737,-1.04655 -14.30633,-13.66571 -21.79438,-24.98209 -3.9875,-6.02614 -7.24991,-10.52358 -7.2498,-9.99431 3.6e-4,1.80206 4.04429,25.91611 6.95322,41.46231 3.9947,21.34888 5.3391,30.04081 4.73925,30.64066 -0.28053,0.28053 -0.77417,-0.32208 -1.09697,-1.33913 z m -348.0957,-4.30153 c -0.85325,-1.65 -2.1597,-3 -2.90324,-3 -2.28443,0 -3.85234,-2.65283 -2.76963,-4.68608 0.73592,-1.38199 -0.0994,-4.07607 -3.50781,-11.31392 -5.81395,-12.34595 -10.31932,-25.7711 -10.31932,-30.74962 0,-5.85821 3.36008,-10.17198 10.90516,-14.00038 7.36119,-3.73509 10.09484,-4.10504 10.09484,-1.36614 0,1.34094 -1.5493,2.51267 -5.37594,4.06579 -5.25916,2.13453 -9.76459,5.92828 -10.89883,9.17722 -0.54209,1.55276 0.19024,5.9381 2.35847,14.12313 l 0.99339,3.75 7.06711,0 c 3.88691,0 9.7358,-0.69153 12.99753,-1.53672 5.6904,-1.47454 7.85827,-1.33305 7.85827,0.51287 0,1.44899 -9.64949,3.02385 -18.52772,3.02385 l -8.42928,0 2.46226,6.75 c 1.35424,3.7125 3.7497,9.9 5.32324,13.75 l 2.86099,7 8.90525,0.31211 c 4.89789,0.17166 10.64811,-0.20049 12.77827,-0.827 4.43768,-1.30518 6.69797,-0.11945 4.01695,2.10727 -1.23673,1.02717 -4.74969,1.40762 -12.99759,1.40762 -11.22175,0 -11.29875,0.0161 -10.73917,2.25 0.79677,3.18075 -0.32205,2.79104 -2.1532,-0.75 z m -2.5,-5.44098 c 0,-0.24254 -0.45,-0.7191 -1,-1.05902 -0.55,-0.33992 -1,-0.14148 -1,0.44098 0,0.58246 0.45,1.05902 1,1.05902 0.55,0 1,-0.19844 1,-0.44098 z m 51.23723,-3.80902 c -2.36675,-2.93596 -9.23568,-17.94109 -12.01652,-26.25 -3.29616,-9.84866 -7.69355,-29.3605 -6.81499,-30.23906 0.30323,-0.30322 0.91055,0.4198 1.34961,1.6067 0.77964,2.10757 0.8373,2.092 2.46644,-0.66593 3.65312,-6.18424 17.57028,-10.74556 25.15176,-8.24345 6.36656,2.10116 9.45837,8.75029 6.57449,14.13886 -1.55325,2.90228 -8.892,7.90288 -11.59806,7.90288 -3.46863,0 -3.08478,-3.45299 0.55126,-4.95908 6.15359,-2.54891 8.91234,-8.64748 5.02473,-11.10784 -3.71028,-2.34815 -14.13654,-0.30965 -18.8949,3.69424 -2.36675,1.9915 -3.02781,3.35285 -3.01627,6.21157 0.0255,6.31863 2.80347,15.86763 9.10123,31.28472 5.56676,13.6276 6.52645,17.87639 4.03782,17.87639 -0.49992,0 -1.36239,-0.5625 -1.9166,-1.25 z m 381.51672,-25.63056 c -5.32392,-6.32713 -14.75395,-24.3801 -14.75395,-28.24517 0,-2.11628 1.80339,-0.60733 2.31171,1.93429 0.70835,3.54172 13.9186,23.69382 16.65024,25.39975 1.12093,0.70003 2.03805,1.83954 2.03805,2.53224 0,2.28969 -3.78107,1.30835 -6.24605,-1.62111 z"
       id="path3239"
       style="fill:#000000"
       inkscape:connector-curvature="0" />
  </g>
</svg>
