<?xml version="1.0" encoding="UTF-8" standalone="no"?>
<svg
   xmlns:dc="http://purl.org/dc/elements/1.1/"
   xmlns:cc="http://creativecommons.org/ns#"
   xmlns:rdf="http://www.w3.org/1999/02/22-rdf-syntax-ns#"
   xmlns:svg="http://www.w3.org/2000/svg"
   xmlns="http://www.w3.org/2000/svg"
   xmlns:sodipodi="http://sodipodi.sourceforge.net/DTD/sodipodi-0.dtd"
   xmlns:inkscape="http://www.inkscape.org/namespaces/inkscape"
   version="1.1"
   width="156.30841"
   height="151.95372"
   id="svg3141"
   inkscape:version="0.48.2 r9819"
   sodipodi:docname="Urist.svg">
  <sodipodi:namedview
     pagecolor="#ffffff"
     bordercolor="#666666"
     borderopacity="1"
     objecttolerance="10"
     gridtolerance="10"
     guidetolerance="10"
     inkscape:pageopacity="0"
     inkscape:pageshadow="2"
     inkscape:window-width="1198"
     inkscape:window-height="882"
     id="namedview6"
     showgrid="false"
     fit-margin-top="0"
     fit-margin-left="0"
     fit-margin-right="0"
     fit-margin-bottom="0"
     inkscape:zoom="5.7914112"
     inkscape:cx="85.530738"
     inkscape:cy="50.757091"
     inkscape:window-x="312"
     inkscape:window-y="60"
     inkscape:window-maximized="0"
     inkscape:current-layer="svg3141"
     showguides="true"
     inkscape:guide-bbox="true" />
  <metadata
     id="metadata3147">
    <rdf:RDF>
      <cc:Work
         rdf:about="">
        <dc:format>image/svg+xml</dc:format>
        <dc:type
           rdf:resource="http://purl.org/dc/dcmitype/StillImage" />
        <dc:title />
      </cc:Work>
    </rdf:RDF>
  </metadata>
  <defs
     id="defs3145" />
  <path
     d="m 37.221522,150.35541 c -1.1,-0.25181 -3.00425,-0.67181 -4.23166,-0.93334 C 23.537603,147.40801 5.6857424,116.48 2.2552124,96.174855 0.05613279,83.158659 -0.57590721,70.446689 0.54110279,61.699949 1.3894224,55.057189 1.9847724,53.463459 4.6277924,50.760109 c 1.81466,-1.85607 3.09863,-4.22281 3.1056,-5.72449 0.0429,-9.24856 9.1000206,-28.98436 16.5234606,-36.0051396 8.2077,-7.7625103 16.162869,-8.98486026 58.754496,-9.02794026 30.266871,-0.0306 30.822521,0.0853 38.835951,8.09870026 7.09396,7.0939596 20.8735,29.7258196 23.66879,38.8742096 0.58819,1.925 3.33095,10.54745 6.09503,19.16099 4.85414,15.12669 5.00774,15.96254 4.50216,24.5 -1.06136,17.922841 -3.02528,22.699131 -13.56613,32.993021 -10.53205,10.2853 -19.24767,15.39631 -40.32564,23.64771 l -12.662071,3.13176 -22.837917,1.41085 c -10.37482,0.64092 -28.4,-1.21269 -29.5,-1.46437 z m 24.0722,-7.70751 c 0.28018,-0.73015 0.0378,-2.56792 -0.53854,-4.08392 -0.57639,-1.516 -0.72943,-3.27177 -0.34011,-3.90171 0.39009,-0.63118 1.23782,1.08994 1.88836,3.83391 l 1.1805,4.97927 0.11879,-6.30902 c 0.15425,-8.19172 2.05491,-7.26742 2.29904,1.11804 0.17564,6.03253 0.18997,6.06301 0.56,1.19098 0.55338,-7.28621 2.25976,-8.14778 2.25976,-1.14098 0,3.5847 0.37755,5.52568 1,5.14098 0.55,-0.33992 1,-2.33523 1,-4.43402 0,-5.14124 1.04897,-10.06598 2.14405,-10.06598 0.49173,0 0.66633,1.0125 0.388,2.25 -0.27832,1.2375 -0.69187,4.65671 -0.919,7.59824 l -0.41295,5.34825 9.149947,-0.68784 c 11.294146,-0.84903 23.463111,-4.7238 37.129761,-11.82262 7.71964,-4.00979 11.84438,-7.0005 18.18597,-13.18603 7.1819,-7.00517 8.4081,-8.72426 9.86053,-13.82415 0.91229,-3.20329 1.50458,-5.963695 1.31619,-6.134235 -0.99283,-0.8988 -66.381831,-2.5646 -99.492138,-2.53458 l -38.1496295,0.0346 1.4272195,5.465415 c 3.534981,13.53693 13.029721,31.35117 19.946601,37.42428 3.515219,3.0864 6.729829,3.85164 18.425449,4.38622 3.575,0.16341 7.52662,0.38381 8.78138,0.48978 1.25476,0.10597 2.51063,-0.40472 2.79082,-1.13488 z m -13.5722,-23.30014 c 0,-0.34522 2.18994,-3.60772 4.86654,-7.25 2.67659,-3.64227 5.45199,-7.74611 6.16755,-9.11965 0.75392,-1.44716 1.47393,-1.97859 1.71221,-1.26375 0.22615,0.67846 -2.09924,4.67115 -5.16756,8.87264 -3.06831,4.20149 -5.57874,8.03268 -5.57874,8.51376 0,0.48108 -0.45,0.87469 -1,0.87469 -0.55,0 -1,-0.28246 -1,-0.62769 z m 10,-1.83713 c -0.259185,-0.76282 0.92079,-1.95761 2.0462,-2.55991 2.43196,-1.30155 8.58107,-0.90605 8.15835,0.52473 -0.1625,0.55 -1.20346,0.85439 -2.31324,0.67643 -1.10979,-0.17797 -4.071533,0.28848 -5.213616,1.40424 -2.540139,2.48159 -2.570427,0.27021 -2.677694,-0.0455 z m 19,-10.22266 c -5.17714,-7.620895 -5.52479,-8.312525 -4.17836,-8.312525 0.54357,0 2.10943,1.913055 3.47969,4.251225 1.37026,2.33817 3.43802,5.10791 4.59502,6.15498 2.044027,1.84982 2.867777,4.62607 1.353647,4.56213 -0.4125,-0.0174 -2.774997,-3.01253 -5.249997,-6.65581 z M 101.40706,76.801139 c 1.46891,-1.37997 2.30283,-3.29795 2.28265,-5.25 -0.0825,-7.97681 -9.784535,-10.95908 -14.367285,-4.4163 -5.267416,7.5203 5.3386,16.00388 12.084635,9.6663 z m -52.630148,0.14467 c 1.05815,-0.5663 2.64339,-2.42097 3.52276,-4.12148 3.38955,-6.55468 -1.08239,-13.84888 -8.49051,-13.84888 -4.6718,0 -7.6403,2.1145 -9.0761,6.46503 -2.671789,8.09559 6.45065,15.56908 14.04385,11.50533 z m 87.922638,-29.22036 c -0.0631,-6.46783 -16.57624,-32.13324 -23.94388,-37.21463 -3.28007,-2.2622296 -4.72044,-2.4825796 -20.034155,-3.0647696 -9.074996,-0.34501 -24.943393,-0.18694 -35.263103,0.35128 -21.60365,1.12671 -25.790349,2.4460296 -31.393149,9.8925996 -3.86635,5.1387 -9.26032,18.78551 -10.04552,25.41529 l -0.57681,4.87023 14.8893,0.13569 c 8.189109,0.0746 29.289289,0.43944 46.889289,0.81071 62.594858,1.32042 59.503198,1.38261 59.478028,-1.1964 z"
     id="path3157"
     style="fill:#000000"
     inkscape:connector-curvature="0"
     sodipodi:nodetypes="cssssssssssssscscscsscssssssssscsssscscssssssssssssscssssccsssscsssssssssssssssscsss" />
</svg>
